<?xml version="1.0" encoding="UTF-8"?>
<svg width="109px" height="200px" viewBox="0 0 109 200" version="1.1" xmlns="http://www.w3.org/2000/svg" xmlns:xlink="http://www.w3.org/1999/xlink">
    <title>fleche-chronologie</title>
    <g id="Site" stroke="none" stroke-width="1" fill="none" fill-rule="evenodd">
        <g id="Nous-connaître-:-Qui-sommes-nous-?" transform="translate(-718.000000, -1902.000000)" fill="#06AEC7" fill-rule="nonzero">
            <g id="Group-16" transform="translate(714.299401, 1916.230920)">
                <path id="fleche-chronologie" d="M82.2900926,168.478455 C82.5559312,168.44035 82.8269907,168.464662 83.081805,168.549467 L110.175168,177.566401 C111.08167,177.868093 111.571965,178.847529 111.270272,179.754031 C111.152077,180.109174 110.921883,180.416402 110.614241,180.629599 L87.1446764,196.894129 C86.3594208,197.438316 85.2816953,197.24289 84.7375091,196.457635 C84.5845405,196.236902 84.4850648,195.983586 84.44696,195.717748 L80.8231618,170.436284 C80.6876039,169.490563 81.3443711,168.614012 82.2900926,168.478455 Z M77.3421555,180.456627 C77.6623086,180.459609 77.9857458,180.460688 78.3124647,180.459861 C79.6931721,180.456367 80.8152893,181.572818 80.8187835,182.953526 C80.8222777,184.334233 79.7058258,185.456351 78.3251183,185.459845 C77.9787523,185.460721 77.6355751,185.459577 77.2955844,185.45641 C75.9149324,185.44355 74.8061181,184.313885 74.8189784,182.933233 C74.8318387,181.552581 75.9615035,180.443767 77.3421555,180.456627 Z M63.3579672,178.485312 C63.6386515,178.583592 63.9262607,178.678321 64.2207964,178.769473 C65.5397882,179.177672 66.2781322,180.577836 65.8699338,181.896828 C65.4617355,183.21582 64.0615712,183.954164 62.7425794,183.545965 C62.3901026,183.436882 62.0444471,183.323034 61.7056143,183.204394 C60.402476,182.748109 59.7159654,181.321815 60.17225,180.018676 C60.6285347,178.715538 62.0548288,178.029028 63.3579672,178.485312 Z M54.6731502,169.844152 C54.772094,170.143013 54.8742614,170.440244 54.9796761,170.735861 C55.4434252,172.036362 54.7651039,173.466569 53.4646032,173.930318 C52.1641025,174.394067 50.7338955,173.715746 50.2701464,172.415245 C50.151929,172.083725 50.0373955,171.750518 49.9265192,171.415614 C49.4925719,170.104868 50.2033576,168.690514 51.5141036,168.256567 C52.8248496,167.82262 54.2392029,168.533406 54.6731502,169.844152 Z M52.3307088,155.758972 C52.3402678,156.080832 52.3522586,156.401007 52.3666987,156.719529 C52.4292288,158.098824 51.3617798,159.267655 49.9824846,159.330185 C48.6031894,159.392715 47.4343591,158.325266 47.371829,156.945971 C47.3562054,156.601345 47.3432409,156.255168 47.3329125,155.907403 C47.2919244,154.527299 48.3774918,153.375277 49.7575951,153.334289 C51.1376985,153.293301 52.2897207,154.378868 52.3307088,155.758972 Z M51.1813488,138.405653 C52.5477732,138.603769 53.4948743,139.872079 53.2967585,141.238504 C53.2495871,141.563849 53.2040697,141.887176 53.1602067,142.208588 C52.973512,143.576619 51.7131574,144.534282 50.3451258,144.347588 C48.9770943,144.160893 48.0194315,142.900538 48.2061261,141.532507 C48.2518833,141.197215 48.2993413,140.860104 48.3484983,140.521063 C48.5466142,139.154638 49.8149245,138.207537 51.1813488,138.405653 Z M54.2096395,123.735998 C55.5561873,124.041243 56.4003304,125.380285 56.0950859,126.726833 C56.0205874,127.055474 55.9478419,127.37835 55.8766239,127.696531 C55.5750433,129.043904 54.2383022,129.891686 52.890929,129.590106 C51.5435559,129.288525 50.6957735,127.951784 50.997354,126.604411 C51.0695793,126.28173 51.1433202,125.954436 51.2188048,125.621445 C51.5240494,124.274897 52.8630916,123.430754 54.2096395,123.735998 Z M63.1631665,119.24026 C63.4808173,119.24763 63.7970956,119.25183 64.1119501,119.252849 C65.4926547,119.257316 66.6083156,120.38022 66.6038483,121.760924 C66.599381,123.141629 65.4764773,124.25729 64.0957727,124.252822 C63.7475448,124.251696 63.397995,124.247055 63.047176,124.238914 C61.6668357,124.206884 60.5738142,123.061932 60.6058441,121.681592 C60.637874,120.301251 61.7828262,119.20823 63.1631665,119.24026 Z M48.9128873,117.020466 C49.223074,117.106653 49.5331154,117.190457 49.8429547,117.271857 C51.1783507,117.622689 51.9764979,118.989646 51.6256663,120.325042 C51.2748348,121.660438 49.9078773,122.458585 48.5724812,122.107754 C48.2398617,122.020369 47.907123,121.93043 47.5743222,121.83796 C46.2440081,121.468325 45.4652234,120.090245 45.834858,118.759931 C46.2044925,117.429617 47.5825732,116.650832 48.9128873,117.020466 Z M81.0902523,118.25851 C81.5996917,119.541801 80.9723607,120.995097 79.6890693,121.504536 C79.3555926,121.636919 79.019192,121.764486 78.6799217,121.887245 C77.3815874,122.357025 75.9482474,121.68535 75.4784672,120.387015 C75.0086871,119.088681 75.6803628,117.655341 76.9786971,117.185561 C77.2699449,117.080178 77.5584668,116.970767 77.8442261,116.857327 C79.1275175,116.347887 80.5808129,116.975218 81.0902523,118.25851 Z M35.4159216,111.784148 C35.7043974,111.928958 35.9938627,112.072011 36.2842556,112.213275 C37.5258547,112.817259 38.0427435,114.3134 37.4387591,115.554999 C36.8347747,116.796599 35.3386337,117.313487 34.0970347,116.709503 C33.7879365,116.55914 33.4798257,116.406872 33.1727649,116.252733 C31.9387994,115.633302 31.4406204,114.130827 32.060051,112.896862 C32.6794816,111.662896 34.1819561,111.164717 35.4159216,111.784148 Z M57.5937194,109.08575 C58.9418618,109.383873 59.7930707,110.718434 59.4949476,112.066577 C59.4236784,112.388864 59.3505758,112.716733 59.2754113,113.051296 C58.9727585,114.398429 57.6353431,115.245147 56.2882103,114.942495 C54.9410776,114.639842 54.0943594,113.302426 54.3970121,111.955294 C54.4709698,111.626102 54.5428549,111.303693 54.6128921,110.986978 C54.9110152,109.638836 56.245577,108.787627 57.5937194,109.08575 Z M92.4100956,108.469207 C93.4791348,109.343004 93.6374102,110.917984 92.7636136,111.987023 C92.5341661,112.267738 92.300804,112.543759 92.0635605,112.815077 C91.154702,113.854472 89.5753306,113.960293 88.5359358,113.051434 C87.496541,112.142576 87.3907204,110.563204 88.2995789,109.52381 C88.5003139,109.294244 88.6978881,109.060553 88.8922802,108.822725 C89.7660768,107.753686 91.3410564,107.595411 92.4100956,108.469207 Z M23.1569835,104.070859 C23.4089285,104.267877 23.663254,104.463778 23.9198955,104.658512 C25.019813,105.493106 25.2349004,107.061337 24.4003067,108.161254 C23.5657129,109.261172 21.9974816,109.476259 20.8975641,108.641666 C20.6216198,108.432285 20.3480622,108.22157 20.0769578,108.00957 C18.9893129,107.159044 18.7970897,105.587847 19.6476153,104.500202 C20.498141,103.412557 22.0693386,103.220334 23.1569835,104.070859 Z M98.2040398,94.6668157 C99.5324148,95.0433592 100.304027,96.4254688 99.9274833,97.7538439 C99.8310339,98.0940993 99.7315688,98.4312253 99.6290972,98.7652203 C99.2241182,100.085204 97.8257596,100.826962 96.5057757,100.421983 C95.1857919,100.017004 94.4440339,98.6186456 94.8490128,97.2986618 C94.9409606,96.9989682 95.0302981,96.6961685 95.1170117,96.3902592 C95.4935552,95.0618842 96.8756647,94.2902722 98.2040398,94.6668157 Z M59.5964652,94.2526945 L59.760684,94.261629 C61.1362107,94.3811763 62.1543832,95.5931733 62.0348359,96.9687 C62.0051733,97.310002 61.9725326,97.6547783 61.9369329,98.0031908 C61.796587,99.3767513 60.5693234,100.376469 59.195763,100.236123 C57.8222025,100.095777 56.8224846,98.8685138 56.9628305,97.4949533 C56.9958889,97.171412 57.0261535,96.8517344 57.0536131,96.5357809 C57.1635966,95.2702964 58.1982295,94.3072764 59.434173,94.2543823 L59.5964652,94.2526945 Z M13.1194347,93.9065709 C13.3008107,94.1581587 13.486861,94.4096297 13.6775252,94.66091 C14.5121138,95.7608314 14.297019,97.3290616 13.1970976,98.1636502 C12.0971762,98.9982388 10.5289459,98.7831441 9.69435733,97.6832226 C9.47916229,97.3996127 9.26886766,97.1153722 9.06354401,96.8305667 C8.25610488,95.7105634 8.50948819,94.1480626 9.62949147,93.3406235 C10.7494948,92.5331843 12.3119955,92.7865677 13.1194347,93.9065709 Z M99.7432453,79.7549912 C101.123231,79.7997763 102.205624,80.954781 102.160839,82.3347664 C102.149638,82.6799208 102.136363,83.0230208 102.121019,83.3640668 C102.058962,84.7433834 100.890498,85.8112334 99.5111816,85.7491766 C98.1318651,85.6871198 97.064015,84.5186558 97.1260719,83.1393392 C97.1404758,82.8191872 97.1529438,82.496936 97.1634701,82.1725851 C97.2082552,80.7925997 98.3632599,79.7102061 99.7432453,79.7549912 Z M60.4537108,81.0257505 C60.5835915,81.3718729 60.7061226,81.7228241 60.8214038,82.078633 C61.2469714,83.3921236 60.5271676,84.8019088 59.213677,85.2274764 C57.9001864,85.653044 56.4904012,84.9332402 56.0648336,83.6197496 C55.9728842,83.3359529 55.8754395,83.0568537 55.7724421,82.7823733 C55.2873641,81.4896767 55.9420684,80.0485056 57.234765,79.5634276 C58.5274617,79.0783496 59.9686328,79.7330538 60.4537108,81.0257505 Z M8.21052932,81.482084 C8.22090498,81.7666815 8.23940798,82.0530353 8.26602239,82.3410948 C8.39304815,83.7159511 7.38148166,84.933467 6.0066254,85.0604928 C4.63176914,85.1875185 3.4142532,84.1759521 3.28722744,82.8010958 C3.25210999,82.421004 3.22762102,82.0420109 3.21384885,81.6642497 C3.16354519,80.2844545 4.24131104,79.1251303 5.62110625,79.0748266 C7.00090146,79.024523 8.16022566,80.1022888 8.21052932,81.482084 Z M53.4926387,67.2391031 C53.6714486,67.5301268 53.8495861,67.8242467 54.0270425,68.1214593 C54.7348563,69.3069402 54.3476307,70.8417588 53.1621498,71.5495726 C51.9766689,72.2573864 50.4418503,71.8701608 49.7340365,70.6846799 C49.5673944,70.4055797 49.4002148,70.1295519 49.2325082,69.8565996 C48.5097065,68.680197 48.8774227,67.1405878 50.0538252,66.4177861 C51.2302278,65.6949844 52.769837,66.0627005 53.4926387,67.2391031 Z M101.697922,67.0199614 C101.727955,67.3567816 101.756666,67.6964978 101.784053,68.0391281 C101.894067,69.4154501 100.86752,70.6203628 99.4911982,70.7303759 C98.1148762,70.840389 96.9099635,69.8138428 96.7999504,68.4375207 C96.7737763,68.110069 96.7463516,67.7855771 96.7176805,67.4640286 C96.5950547,66.0887729 97.6105119,64.8745001 98.9857676,64.7518743 C100.361023,64.6292485 101.575296,65.6447057 101.697922,67.0199614 Z M8.64863912,64.3932132 C9.95905416,64.8281589 10.6687623,66.2430533 10.2338167,67.5534683 C10.1360845,67.8479183 10.0416745,68.1454394 9.95063197,68.4459353 C9.55028295,69.7673308 8.15453327,70.5139864 6.83313782,70.1136374 C5.51174237,69.7132884 4.76508672,68.3175387 5.16543575,66.9961432 C5.26915607,66.653803 5.37681908,66.3145165 5.48838404,65.9783908 C5.92332969,64.6679757 7.33822409,63.9582676 8.64863912,64.3932132 Z M43.6903307,54.9711747 C43.9494295,55.2088017 44.2077541,55.451913 44.465276,55.700497 C45.4586735,56.6594166 45.4866234,58.2420822 44.5277038,59.2354797 C43.5687843,60.2288773 41.9861186,60.2568272 40.9927211,59.2979076 C40.7657099,59.0787753 40.5383853,58.8648383 40.3107822,58.6560969 C39.293219,57.7228604 39.2248588,56.1414248 40.1580953,55.1238616 C41.0913319,54.1062984 42.6727675,54.0379382 43.6903307,54.9711747 Z M17.6798503,52.5700301 C18.5805569,53.6164969 18.4623948,55.1949929 17.4159279,56.0956995 C17.1955317,56.2853971 16.9778354,56.4820564 16.7629742,56.6855748 C15.7605626,57.6350674 14.1782316,57.5921682 13.2287389,56.5897566 C12.2792463,55.587345 12.3221456,54.005014 13.3245571,53.0555213 C13.5968123,52.7976389 13.873402,52.5477774 14.1541808,52.3061077 C15.2006477,51.4054011 16.7791437,51.5235632 17.6798503,52.5700301 Z M98.8997382,51.8335858 C99.0039474,52.1647381 99.1056981,52.5005871 99.2049912,52.8411858 C99.5914176,54.1667197 98.8301207,55.5545377 97.5045869,55.9409641 C96.1790531,56.3273906 94.7912351,55.5660936 94.4048086,54.2405598 C94.3153665,53.9337522 94.2238662,53.6317367 94.1303171,53.3344598 C93.7158622,52.0174205 94.4475514,50.6137672 95.7645907,50.1993123 C97.0816299,49.7848574 98.4852833,50.5165466 98.8997382,51.8335858 Z M29.044754,47.557231 C29.4216779,47.6017777 29.7992134,47.6575193 30.1771739,47.7244544 C31.5367306,47.9652259 32.4436852,49.2625482 32.2029137,50.6221049 C31.9621422,51.9816616 30.6648199,52.8886162 29.3052633,52.6478447 C29.0216928,52.5976257 28.7392165,52.5559191 28.4579137,52.5226734 C27.0867446,52.3606219 26.1065612,51.1177011 26.2686126,49.746532 C26.4306641,48.3753629 27.673585,47.3951795 29.044754,47.557231 Z M90.5792759,37.9310801 C90.8552784,38.1794097 91.1262585,38.4349291 91.3922726,38.6978532 C92.3742701,39.6684438 92.3835173,41.2513292 91.4129267,42.2333267 C90.4423361,43.2153243 88.8594506,43.2245714 87.8774531,42.2539808 C87.6671046,42.0460758 87.4529888,41.8441762 87.2349924,41.6480369 C86.2085831,40.7245385 86.1251574,39.143826 87.0486558,38.1174167 C87.9721542,37.0910074 89.5528667,37.0075817 90.5792759,37.9310801 Z M76.0831683,30.9994764 C76.4363345,31.0952036 76.7568303,31.1831213 77.0644867,31.2688517 C78.3945255,31.6394756 79.172285,33.0181351 78.8016611,34.3481739 C78.4310372,35.6782127 77.0523777,36.4559722 75.7223389,36.0853483 C75.426926,36.0030296 75.117562,35.9181656 74.7750977,35.8253392 C73.4424725,35.4641254 72.6549879,34.0909977 73.0162016,32.7583725 C73.3774154,31.4257473 74.7505431,30.6382627 76.0831683,30.9994764 Z M63.2201788,25.8320028 C63.4428349,26.0112104 63.6712301,26.1845756 63.9056503,26.3524709 C65.0281564,27.156427 65.2863922,28.7181331 64.4824361,29.8406392 C63.6784801,30.9631453 62.1167739,31.2213811 60.9942678,30.4174251 C60.6841837,30.1953381 60.3812078,29.9653618 60.0851674,29.7270899 C59.0095688,28.8613804 58.8394201,27.2876393 59.7051296,26.2120407 C60.570839,25.1364421 62.1445802,24.9662933 63.2201788,25.8320028 Z M56.8527516,14.3436037 C56.9243547,14.651917 56.998709,14.9544749 57.0757982,15.2513564 C57.4228107,16.58775 56.6207588,17.9524201 55.2843653,18.2994326 C53.9479718,18.646445 52.5833016,17.8443931 52.2362892,16.5079996 C52.1483064,16.1691654 52.0636684,15.8247616 51.9823714,15.4747076 C51.6700256,14.1297892 52.5070912,12.7863112 53.8520096,12.4739655 C55.1969279,12.1616198 56.5404059,12.9986853 56.8527516,14.3436037 Z M52.994881,-2.5 C54.3755929,-2.5 55.494881,-1.38071187 55.494881,1.05488665e-13 C55.494881,0.328513169 55.4963942,0.65376795 55.4994151,0.975785292 C55.5123672,2.35643641 54.403628,3.48617505 53.0229769,3.49912716 C51.6423258,3.51207927 50.5125872,2.40334015 50.4996351,1.02268903 C50.4964669,0.684973057 50.494881,0.344084569 50.494881,-1.05488665e-13 C50.494881,-1.38071187 51.6141692,-2.5 52.994881,-2.5 Z" transform="translate(57.723737, 91.480065) rotate(-180.000000) translate(-57.723737, -91.480065) "></path>
            </g>
        </g>
    </g>
</svg>